<svg xmlns="http://www.w3.org/2000/svg" version="1.1" xmlns:xlink="http://www.w3.org/1999/xlink" xmlns:svgjs="http://svgjs.dev/svgjs" width="2000" height="1999" viewBox="0 0 2000 1999"><g transform="matrix(1,0,0,1,-0.431486880466764,-0.4312711370263287)"><svg viewBox="0 0 343 343" data-background-color="#bdbfde" preserveAspectRatio="xMidYMid meet" height="1999" width="2000" xmlns="http://www.w3.org/2000/svg" xmlns:xlink="http://www.w3.org/1999/xlink"><g id="tight-bounds" transform="matrix(1,0,0,1,0.0740000000000407,0.07400000000001228)"><svg viewBox="0 0 342.85155851775386 342.85155851775386" height="342.85155851775386" width="342.85155851775386"><g><svg></svg></g><g><svg viewBox="0 0 342.85155851775386 342.85155851775386" height="342.85155851775386" width="342.85155851775386"><g><path d="M0 171.426c0-94.676 76.75-171.426 171.426-171.426 94.676 0 171.426 76.75 171.426 171.426 0 94.676-76.75 171.426-171.426 171.426-94.676 0-171.426-76.75-171.426-171.426zM171.426 339.945c93.07 0 168.519-75.449 168.519-168.519 0-93.07-75.449-168.519-168.519-168.519-93.07 0-168.519 75.449-168.519 168.519 0 93.07 75.449 168.519 168.519 168.519z" data-fill-palette-color="tertiary" fill="#58454b" stroke="transparent"></path><ellipse rx="164.56874808852186" ry="164.56874808852186" cx="171.42577925887693" cy="171.42577925887693" fill="#58454b" stroke="transparent" stroke-width="0" fill-opacity="1" data-fill-palette-color="tertiary"></ellipse></g><g transform="matrix(1,0,0,1,64.84655864529837,96.01093269702442)"><svg viewBox="0 0 213.1584412271571 150.82969312370503" height="150.82969312370503" width="213.1584412271571"><g><svg viewBox="0 0 213.1584412271571 150.82969312370503" height="150.82969312370503" width="213.1584412271571"><g><svg viewBox="0 0 213.1584412271571 150.82969312370503" height="150.82969312370503" width="213.1584412271571"><g transform="matrix(1,0,0,1,0,90.7036473840525)"><svg viewBox="0 0 213.1584412271571 60.12604573965253" height="60.12604573965253" width="213.1584412271571"><g id="textblocktransform"><svg viewBox="0 0 213.1584412271571 60.12604573965253" height="60.12604573965253" width="213.1584412271571" id="textblock"><g><svg viewBox="0 0 213.1584412271571 32.233061267781096" height="32.233061267781096" width="213.1584412271571"><g transform="matrix(1,0,0,1,0,0)"><svg width="213.1584412271571" viewBox="4.35 -35.65 238.39000000000001 36.05" height="32.233061267781096" data-palette-color="#c9cadd"><path d="M24.35-18.1Q27.4-17.3 29.08-15.1 30.75-12.9 30.75-9.6L30.75-9.6Q30.75-4.95 27.7-2.48 24.65 0 19.05 0L19.05 0 4.35 0 4.35-35.25 18.5-35.25Q23.95-35.25 26.95-32.85 29.95-30.45 29.95-26.05L29.95-26.05Q29.95-23.2 28.48-21.15 27-19.1 24.35-18.1L24.35-18.1ZM8.4-31.85L8.4-19.6 17.9-19.6Q21.85-19.6 23.88-21.2 25.9-22.8 25.9-25.85L25.9-25.85Q25.9-31.85 17.9-31.85L17.9-31.85 8.4-31.85ZM18.65-3.4Q22.8-3.4 24.78-4.93 26.75-6.45 26.75-9.7L26.75-9.7Q26.75-16.2 18.65-16.2L18.65-16.2 8.4-16.2 8.4-3.4 18.65-3.4ZM68.8 0L64.65 0 60.75-9.05 42.35-9.05 38.45 0 34.25 0 49.75-35.25 53.3-35.25 68.8 0ZM51.55-30.5L43.8-12.45 59.3-12.45 51.55-30.5ZM98.45-6.9L98.45-35.25 102.3-35.25 102.3 0 99.15 0 77.9-28.35 77.9 0 74.05 0 74.05-35.25 77.2-35.25 98.45-6.9ZM135.39-6.9L135.39-35.25 139.24-35.25 139.24 0 136.09 0 114.84-28.35 114.84 0 110.99 0 110.99-35.25 114.14-35.25 135.39-6.9ZM179.04 0L174.89 0 170.99-9.05 152.59-9.05 148.69 0 144.49 0 159.99-35.25 163.54-35.25 179.04 0ZM161.79-30.5L154.04-12.45 169.54-12.45 161.79-30.5ZM205.89-11.5L212.04 0 207.54 0 201.54-11.3Q200.44-13.35 198.96-14.13 197.49-14.9 194.94-14.9L194.94-14.9 188.34-14.9 188.34 0 184.29 0 184.29-35.25 198.79-35.25Q204.54-35.25 207.56-32.7 210.59-30.15 210.59-25.2L210.59-25.2Q210.59-21.1 208.26-18.57 205.94-16.05 201.64-15.4L201.64-15.4Q202.99-15 204.01-14.05 205.04-13.1 205.89-11.5L205.89-11.5ZM188.34-18.3L198.44-18.3Q202.54-18.3 204.56-20 206.59-21.7 206.59-25.15L206.59-25.15Q206.59-28.55 204.59-30.2 202.59-31.85 198.44-31.85L198.44-31.85 188.34-31.85 188.34-18.3ZM229.74 0.4Q221.49 0.4 216.54-4.05L216.54-4.05 218.14-7.2Q220.74-5 223.46-4.05 226.19-3.1 229.79-3.1L229.79-3.1Q234.04-3.1 236.34-4.75 238.64-6.4 238.64-9.4L238.64-9.4Q238.64-11.15 237.54-12.25 236.44-13.35 234.64-14 232.84-14.65 229.79-15.35L229.79-15.35Q225.69-16.3 223.06-17.35 220.44-18.4 218.81-20.35 217.19-22.3 217.19-25.45L217.19-25.45Q217.19-28.45 218.76-30.78 220.34-33.1 223.26-34.38 226.19-35.65 230.04-35.65L230.04-35.65Q233.69-35.65 236.86-34.5 240.04-33.35 242.24-31.2L242.24-31.2 240.69-28.05Q238.19-30.2 235.61-31.18 233.04-32.15 230.04-32.15L230.04-32.15Q225.94-32.15 223.61-30.43 221.29-28.7 221.29-25.6L221.29-25.6Q221.29-22.95 223.34-21.6 225.39-20.25 229.54-19.3L229.54-19.3Q234.09-18.2 236.69-17.28 239.29-16.35 241.01-14.5 242.74-12.65 242.74-9.55L242.74-9.55Q242.74-6.55 241.16-4.3 239.59-2.05 236.64-0.83 233.69 0.4 229.74 0.4L229.74 0.4Z" opacity="1" transform="matrix(1,0,0,1,0,0)" fill="#c9cadd" class="wordmark-text-0" data-fill-palette-color="quaternary" id="text-0"></path></svg></g></svg></g><g transform="matrix(1,0,0,1,0,39.842513439633784)"><svg viewBox="0 0 213.1584412271571 20.283532300018745" height="20.283532300018745" width="213.1584412271571"><g transform="matrix(1,0,0,1,0,0)"><svg width="213.1584412271571" viewBox="3.25 -35.5 373.04 35.5" height="20.283532300018745" data-palette-color="#c9cadd"><path d="M31.25-10.5L31.25-10.5Q31.25-8.33 30.42-6.42 29.59-4.52 28.16-3.09 26.73-1.66 24.83-0.83 22.92 0 20.75 0L20.75 0 3.25 0 3.25-35.01 20.75-35.01Q22.92-35.01 24.83-34.18 26.73-33.35 28.16-31.92 29.59-30.49 30.42-28.59 31.25-26.68 31.25-24.51L31.25-24.51Q31.25-23.54 30.98-22.51 30.71-21.48 30.22-20.53 29.74-19.58 29.05-18.8 28.37-18.02 27.54-17.5L27.54-17.5Q28.39-17.04 29.08-16.25 29.76-15.45 30.25-14.5 30.74-13.55 30.99-12.51 31.25-11.47 31.25-10.5ZM10.25-13.99L10.25-7.01 20.75-7.01Q21.48-7.01 22.12-7.28 22.75-7.54 23.23-8.02 23.71-8.5 23.97-9.13 24.24-9.77 24.24-10.5L24.24-10.5Q24.24-11.23 23.97-11.87 23.71-12.5 23.23-12.98 22.75-13.45 22.12-13.72 21.48-13.99 20.75-13.99L20.75-13.99 10.25-13.99ZM10.25-28L10.25-21 20.75-21Q21.48-21 22.12-21.26 22.75-21.53 23.23-22.01 23.71-22.49 23.97-23.13 24.24-23.78 24.24-24.51L24.24-24.51Q24.24-25.24 23.97-25.88 23.71-26.51 23.23-26.99 22.75-27.47 22.12-27.73 21.48-28 20.75-28L20.75-28 10.25-28ZM43.14-13.99L57.15-13.99 57.15-21Q57.15-22.44 56.6-23.72 56.05-25 55.1-25.95 54.15-26.9 52.87-27.45 51.59-28 50.15-28L50.15-28Q48.71-28 47.42-27.45 46.14-26.9 45.19-25.95 44.24-25 43.69-23.72 43.14-22.44 43.14-21L43.14-21 43.14-13.99ZM64.16-21L64.16 0 57.15 0 57.15-7.01 43.14-7.01 43.14 0 36.16 0 36.16-21Q36.16-23.9 37.26-26.45 38.35-29 40.25-30.91 42.14-32.81 44.69-33.91 47.24-35.01 50.15-35.01L50.15-35.01Q53.05-35.01 55.6-33.91 58.15-32.81 60.06-30.91 61.96-29 63.06-26.45 64.16-23.9 64.16-21L64.16-21ZM98.24-35.01L98.24 0 90.75 0 77.25-23.05 77.25 0 70.24 0 70.24-35.01 77.73-35.01 91.24-11.94 91.24-35.01 98.24-35.01ZM132.74-35.01L132.74 0 125.24 0 111.74-23.05 111.74 0 104.74 0 104.74-35.01 112.23-35.01 125.73-11.94 125.73-35.01 132.74-35.01ZM145.83-13.99L159.84-13.99 159.84-21Q159.84-22.44 159.29-23.72 158.74-25 157.79-25.95 156.84-26.9 155.55-27.45 154.27-28 152.83-28L152.83-28Q151.39-28 150.11-27.45 148.83-26.9 147.88-25.95 146.92-25 146.37-23.72 145.83-22.44 145.83-21L145.83-21 145.83-13.99ZM166.85-21L166.85 0 159.84 0 159.84-7.01 145.83-7.01 145.83 0 138.84 0 138.84-21Q138.84-23.9 139.94-26.45 141.04-29 142.93-30.91 144.82-32.81 147.38-33.91 149.93-35.01 152.83-35.01L152.83-35.01Q155.74-35.01 158.29-33.91 160.84-32.81 162.74-30.91 164.65-29 165.75-26.45 166.85-23.9 166.85-21L166.85-21ZM186.94-28L179.93-28 179.93-13.99 186.94-13.99Q188.38-13.99 189.65-14.54 190.92-15.09 191.87-16.04 192.82-16.99 193.37-18.27 193.92-19.56 193.92-21L193.92-21Q193.92-22.44 193.37-23.72 192.82-25 191.87-25.95 190.92-26.9 189.65-27.45 188.38-28 186.94-28L186.94-28ZM179.93-7.01L179.93 0 172.92 0 172.92-35.01 186.94-35.01Q188.87-35.01 190.65-34.51 192.43-34.01 193.98-33.09 195.53-32.18 196.81-30.9 198.1-29.61 199.01-28.05 199.93-26.49 200.43-24.71 200.93-22.92 200.93-21L200.93-21Q200.93-19.19 200.48-17.48 200.02-15.77 199.18-14.23 198.34-12.7 197.12-11.4 195.9-10.11 194.38-9.16L194.38-9.16 198.27 0 190.82 0 187.77-7.06 179.93-7.01ZM203.47-24.51L203.47-24.51Q203.47-26.68 204.3-28.59 205.13-30.49 206.56-31.92 207.98-33.35 209.89-34.18 211.79-35.01 213.96-35.01L213.96-35.01 230.03-35.01 230.03-28 213.96-28Q213.23-28 212.6-27.73 211.96-27.47 211.49-26.99 211.01-26.51 210.74-25.88 210.47-25.24 210.47-24.51L210.47-24.51Q210.47-23.78 210.74-23.13 211.01-22.49 211.49-22.01 211.96-21.53 212.6-21.26 213.23-21 213.96-21L213.96-21 220.97-21Q223.14-21 225.06-20.18 226.98-19.36 228.41-17.93 229.83-16.5 230.65-14.59 231.47-12.67 231.47-10.5L231.47-10.5Q231.47-8.33 230.65-6.42 229.83-4.52 228.41-3.09 226.98-1.66 225.06-0.83 223.14 0 220.97 0L220.97 0 205.42 0 205.42-7.01 220.97-7.01Q221.7-7.01 222.34-7.28 222.97-7.54 223.45-8.02 223.93-8.5 224.19-9.13 224.46-9.77 224.46-10.5L224.46-10.5Q224.46-11.23 224.19-11.87 223.93-12.5 223.45-12.98 222.97-13.45 222.34-13.72 221.7-13.99 220.97-13.99L220.97-13.99 213.96-13.99Q211.79-13.99 209.89-14.82 207.98-15.65 206.56-17.08 205.13-18.51 204.3-20.42 203.47-22.34 203.47-24.51ZM264.75-28L264.75 0 257.76 0 257.76-28 247.24-28 247.24-35.01 275.24-35.01 275.24-28 264.75-28ZM302.95-7.01L302.95 0 278.96 0 278.96-35.01 302.95-35.01 302.95-28 285.96-28 285.96-21 297.46-21 297.46-13.99 285.96-13.99 285.96-7.01 302.95-7.01ZM314.45-13.99L328.47-13.99 328.47-21Q328.47-22.44 327.92-23.72 327.37-25 326.42-25.95 325.46-26.9 324.18-27.45 322.9-28 321.46-28L321.46-28Q320.02-28 318.74-27.45 317.46-26.9 316.5-25.95 315.55-25 315-23.72 314.45-22.44 314.45-21L314.45-21 314.45-13.99ZM335.47-21L335.47 0 328.47 0 328.47-7.01 314.45-7.01 314.45 0 307.47 0 307.47-21Q307.47-23.9 308.57-26.45 309.67-29 311.56-30.91 313.45-32.81 316-33.91 318.55-35.01 321.46-35.01L321.46-35.01Q324.37-35.01 326.92-33.91 329.47-32.81 331.37-30.91 333.28-29 334.38-26.45 335.47-23.9 335.47-21L335.47-21ZM376.29-25L376.29 0 369.31 0 369.31-25Q369.31-25.73 369.03-26.37 368.75-27 368.27-27.48 367.8-27.95 367.16-28.22 366.53-28.49 365.8-28.49L365.8-28.49Q365.06-28.49 364.43-28.22 363.79-27.95 363.32-27.48 362.84-27 362.57-26.37 362.3-25.73 362.3-25L362.3-25 362.3 0 355.3 0 355.3-25Q355.3-25.73 355.03-26.37 354.76-27 354.28-27.48 353.81-27.95 353.17-28.22 352.54-28.49 351.81-28.49L351.81-28.49Q351.07-28.49 350.44-28.22 349.8-27.95 349.33-27.48 348.85-27 348.58-26.37 348.32-25.73 348.32-25L348.32-25 348.32 0 341.31 0 341.31-25Q341.31-27.17 342.13-29.09 342.94-31.01 344.37-32.43 345.8-33.86 347.72-34.68 349.63-35.5 351.81-35.5L351.81-35.5Q353.76-35.5 355.57-34.8 357.37-34.11 358.81-32.79L358.81-32.79Q360.25-34.11 362.05-34.8 363.84-35.5 365.8-35.5L365.8-35.5Q367.97-35.5 369.89-34.68 371.8-33.86 373.23-32.43 374.66-31.01 375.48-29.09 376.29-27.17 376.29-25L376.29-25Z" opacity="1" transform="matrix(1,0,0,1,0,0)" fill="#c9cadd" class="slogan-text-1" data-fill-palette-color="quaternary" id="text-1"></path></svg></g></svg></g></svg></g></svg></g><g transform="matrix(1,0,0,1,77.92420510896434,0)"><svg viewBox="0 0 57.31003100922844 83.0941952121998" height="83.0941952121998" width="57.31003100922844"><g><svg xmlns="http://www.w3.org/2000/svg" viewBox="12 3.003733902137006 40 57.99626609786299" x="0" y="0" height="83.0941952121998" width="57.31003100922844" class="icon-icon-0" data-fill-palette-color="quaternary" id="icon-0"><g fill="#c9cadd" data-fill-palette-color="quaternary"><path d="M12 43V57a4 4 0 0 0 4 4H48a4 4 0 0 0 4-4V43a4 4 0 0 0-4-4H16A4 4 0 0 0 12 43Zm2 14V43a2 2 0 0 1 2-2h4V59H16A2 2 0 0 1 14 57ZM50 43V57a2 2 0 0 1-2 2H44V41h4A2 2 0 0 1 50 43Zm-8-2V59H22V41Z" fill="#c9cadd" data-fill-palette-color="quaternary"></path><path d="M47 52a1 1 0 0 0 1-1V49a1 1 0 0 0-2 0v2A1 1 0 0 0 47 52Z" fill="#c9cadd" data-fill-palette-color="quaternary"></path><path d="M21 19.485a0.928 0.928 0 0 0 0.022 0.14 1.02 1.02 0 0 0 0.026 0.167 1.272 1.272 0 0 0 0.058 0.117 1.059 1.059 0 0 0 0.078 0.154 0.961 0.961 0 0 0 0.129 0.134 0.938 0.938 0 0 0 0.082 0.085 0.984 0.984 0 0 0 0.273 0.147l10 3.514 0.015 0a0.976 0.976 0 0 0 0.649 0l10-3.514a0.984 0.984 0 0 0 0.273-0.147 0.938 0.938 0 0 0 0.082-0.085 0.961 0.961 0 0 0 0.129-0.134 1.059 1.059 0 0 0 0.078-0.154 1.272 1.272 0 0 0 0.058-0.117 1.02 1.02 0 0 0 0.026-0.167 0.928 0.928 0 0 0 0.022-0.14v-12h0v0a1.006 1.006 0 0 0-0.044-0.274c-0.008-0.028-0.019-0.053-0.029-0.079a1.047 1.047 0 0 0-0.089-0.177c-0.016-0.025-0.031-0.049-0.049-0.072a1.026 1.026 0 0 0-0.152-0.157c-0.016-0.013-0.028-0.028-0.045-0.04l-0.014-0.013a0.988 0.988 0 0 0-0.235-0.121l-0.014-0.007-10-3.485a0.99 0.99 0 0 0-0.658 0l-10 3.485-0.013 0.007a0.976 0.976 0 0 0-0.236 0.121l-0.014 0.013c-0.017 0.012-0.029 0.027-0.045 0.04a1.026 1.026 0 0 0-0.152 0.157c-0.018 0.023-0.033 0.047-0.049 0.072a1.047 1.047 0 0 0-0.089 0.177c-0.01 0.026-0.021 0.051-0.029 0.079A1.006 1.006 0 0 0 21 7.481v0h0Zm12-2.078l5.973 2.082L33 21.589Zm0-5.7l5.777-2.031L41 8.9v9.181l-8-2.789Zm-2 0v3.581l-8 2.789V8.9Zm0 5.7v4.182l-5.973-2.1ZM32 5.059l6.973 2.43-0.82 0.289L32 9.94 25.027 7.489Z" fill="#c9cadd" data-fill-palette-color="quaternary"></path><rect x="20" y="24" width="2" height="2" fill="#c9cadd" data-fill-palette-color="quaternary"></rect><rect x="24" y="28" width="2" height="2" fill="#c9cadd" data-fill-palette-color="quaternary"></rect><rect x="28" y="31" width="2" height="2" fill="#c9cadd" data-fill-palette-color="quaternary"></rect><rect x="31" y="35" width="2" height="2" fill="#c9cadd" data-fill-palette-color="quaternary"></rect><rect x="31" y="27" width="2" height="2" fill="#c9cadd" data-fill-palette-color="quaternary"></rect><rect x="34" y="31" width="2" height="2" fill="#c9cadd" data-fill-palette-color="quaternary"></rect><rect x="38" y="28" width="2" height="2" fill="#c9cadd" data-fill-palette-color="quaternary"></rect><rect x="42" y="24" width="2" height="2" fill="#c9cadd" data-fill-palette-color="quaternary"></rect><rect x="16" y="45" width="2" height="2" fill="#c9cadd" data-fill-palette-color="quaternary"></rect><rect x="16" y="49" width="2" height="2" fill="#c9cadd" data-fill-palette-color="quaternary"></rect><rect x="16" y="53" width="2" height="2" fill="#c9cadd" data-fill-palette-color="quaternary"></rect><path d="M37.959 46.728a0.734 0.734 0 0 0-0.032-0.082 1.01 1.01 0 0 0-0.079-0.166q-0.027-0.042-0.057-0.081a1.032 1.032 0 0 0-0.118-0.129A0.945 0.945 0 0 0 37.6 46.2c-0.013-0.01-0.023-0.023-0.036-0.032a1.023 1.023 0 0 0-0.132-0.067c-0.021-0.01-0.036-0.025-0.057-0.034l-5-2a1.007 1.007 0 0 0-0.744 0l-5 2c-0.021 0.009-0.036 0.024-0.057 0.034a1.023 1.023 0 0 0-0.132 0.067c-0.013 0.009-0.023 0.022-0.036 0.032a0.945 0.945 0 0 0-0.076 0.066 1.032 1.032 0 0 0-0.118 0.129q-0.03 0.039-0.057 0.081a1.01 1.01 0 0 0-0.079 0.166 0.734 0.734 0 0 0-0.032 0.082A0.984 0.984 0 0 0 26 47v6a1 1 0 0 0 0.628 0.929l5 2A1 1 0 0 0 32 56a0.986 0.986 0 0 0 0.335-0.064c0.012-0.005 0.025 0 0.037-0.007l5-2A1 1 0 0 0 38 53V47A0.984 0.984 0 0 0 37.959 46.728ZM32 46.077L34.307 47 32 47.923 29.693 47Zm-4 2.4l3 1.2v3.846l-3-1.2Zm5 5.046V49.677l3-1.2v3.846Z" fill="#c9cadd" data-fill-palette-color="quaternary"></path></g></svg></g></svg></g><g></g></svg></g></svg></g></svg></g></svg></g><defs></defs></svg><rect width="342.85155851775386" height="342.85155851775386" fill="none" stroke="none" visibility="hidden"></rect></g></svg></g></svg>