<svg xmlns="http://www.w3.org/2000/svg" xmlns:xlink="http://www.w3.org/1999/xlink" width="222" zoomAndPan="magnify" viewBox="0 0 166.5 33.749998" height="45" preserveAspectRatio="xMidYMid meet" version="1.0"><defs><g/><clipPath id="b97e8d963c"><path d="M 41 12 L 43 12 L 43 14 L 41 14 Z M 41 12 " clip-rule="nonzero"/></clipPath><clipPath id="0a0884d8b3"><path d="M 41.625 12.3125 L 43.023438 12.824219 L 42.511719 14.222656 L 41.113281 13.710938 Z M 41.625 12.3125 " clip-rule="nonzero"/></clipPath><clipPath id="63da420357"><path d="M 41.625 12.3125 L 43.023438 12.824219 L 42.511719 14.222656 L 41.113281 13.710938 Z M 41.625 12.3125 " clip-rule="nonzero"/></clipPath><clipPath id="ba7880a667"><path d="M 43.289062 17.34375 L 44.199219 17.34375 L 44.199219 18.128906 L 43.289062 18.128906 Z M 43.289062 17.34375 " clip-rule="nonzero"/></clipPath><clipPath id="6912c8660e"><path d="M 43.289062 18.128906 L 43.746094 17.34375 L 44.199219 18.128906 Z M 43.289062 18.128906 " clip-rule="nonzero"/></clipPath><clipPath id="9014da4085"><path d="M 117 0 L 120 0 L 120 2 L 117 2 Z M 117 0 " clip-rule="nonzero"/></clipPath><clipPath id="8ac63d6a9a"><path d="M 117.730469 0.746094 L 119.121094 0.214844 L 119.652344 1.601562 L 118.265625 2.136719 Z M 117.730469 0.746094 " clip-rule="nonzero"/></clipPath><clipPath id="b6c133057f"><path d="M 117.730469 0.746094 L 119.121094 0.214844 L 119.652344 1.601562 L 118.265625 2.136719 Z M 117.730469 0.746094 " clip-rule="nonzero"/></clipPath><clipPath id="91c3c6f73e"><path d="M 108 0 L 110 0 L 110 2 L 108 2 Z M 108 0 " clip-rule="nonzero"/></clipPath><clipPath id="e9ca50dfce"><path d="M 108.003906 0.675781 L 108.554688 -0.046875 L 109.183594 0.433594 L 108.628906 1.15625 Z M 108.003906 0.675781 " clip-rule="nonzero"/></clipPath><clipPath id="3dddcd4485"><path d="M 108.628906 1.15625 L 108.28125 0.316406 L 109.183594 0.433594 Z M 108.628906 1.15625 " clip-rule="nonzero"/></clipPath><clipPath id="dc9a976b93"><path d="M 122 27 L 124 27 L 124 29 L 122 29 Z M 122 27 " clip-rule="nonzero"/></clipPath><clipPath id="1fda389193"><path d="M 122.003906 27.34375 L 123.394531 26.808594 L 123.929688 28.199219 L 122.539062 28.734375 Z M 122.003906 27.34375 " clip-rule="nonzero"/></clipPath><clipPath id="42533dcbd4"><path d="M 122.003906 27.34375 L 123.394531 26.808594 L 123.929688 28.199219 L 122.539062 28.734375 Z M 122.003906 27.34375 " clip-rule="nonzero"/></clipPath><clipPath id="1e02a767cb"><path d="M 113 32 L 116 32 L 116 33.5 L 113 33.5 Z M 113 32 " clip-rule="nonzero"/></clipPath><clipPath id="9c1d1ad655"><path d="M 113.734375 32.242188 L 115.125 31.710938 L 115.660156 33.097656 L 114.269531 33.632812 Z M 113.734375 32.242188 " clip-rule="nonzero"/></clipPath><clipPath id="55242b6d42"><path d="M 113.734375 32.242188 L 115.125 31.710938 L 115.660156 33.097656 L 114.269531 33.632812 Z M 113.734375 32.242188 " clip-rule="nonzero"/></clipPath><clipPath id="a7299b40a8"><path d="M 43 25 L 45 25 L 45 27 L 43 27 Z M 43 25 " clip-rule="nonzero"/></clipPath><clipPath id="f1918722cc"><path d="M 42.953125 25.550781 L 43.507812 24.828125 L 44.132812 25.308594 L 43.578125 26.027344 Z M 42.953125 25.550781 " clip-rule="nonzero"/></clipPath><clipPath id="c9d8b8400c"><path d="M 43.578125 26.027344 L 43.230469 25.191406 L 44.132812 25.308594 Z M 43.578125 26.027344 " clip-rule="nonzero"/></clipPath><clipPath id="87e44dbcde"><path d="M 123 13 L 125 13 L 125 15 L 123 15 Z M 123 13 " clip-rule="nonzero"/></clipPath><clipPath id="1881c421a1"><path d="M 123.636719 13.882812 L 124.1875 13.160156 L 124.8125 13.640625 L 124.261719 14.363281 Z M 123.636719 13.882812 " clip-rule="nonzero"/></clipPath><clipPath id="3199687387"><path d="M 124.261719 14.363281 L 123.910156 13.523438 L 124.8125 13.640625 Z M 124.261719 14.363281 " clip-rule="nonzero"/></clipPath><clipPath id="c8ab0001b1"><path d="M 27.929688 7 L 139 7 L 139 33.5 L 27.929688 33.5 Z M 27.929688 7 " clip-rule="nonzero"/></clipPath><clipPath id="7f88a69376"><path d="M 30 0 L 142.578125 0 L 142.578125 33.5 L 30 33.5 Z M 30 0 " clip-rule="nonzero"/></clipPath></defs><g clip-path="url(#b97e8d963c)"><g clip-path="url(#0a0884d8b3)"><g clip-path="url(#63da420357)"><path fill="#ffc107" d="M 42.433594 13.101562 L 42.101562 12.980469 L 42.222656 12.644531 C 42.242188 12.589844 42.214844 12.53125 42.160156 12.507812 C 42.105469 12.488281 42.042969 12.515625 42.023438 12.574219 L 41.898438 12.90625 L 41.566406 12.785156 C 41.511719 12.765625 41.449219 12.792969 41.429688 12.847656 C 41.410156 12.902344 41.4375 12.964844 41.492188 12.984375 L 41.828125 13.109375 L 41.703125 13.441406 C 41.683594 13.496094 41.710938 13.558594 41.769531 13.578125 C 41.824219 13.601562 41.886719 13.570312 41.90625 13.515625 L 42.027344 13.179688 L 42.363281 13.304688 C 42.417969 13.324219 42.480469 13.296875 42.5 13.238281 C 42.519531 13.183594 42.492188 13.125 42.433594 13.101562 Z M 42.433594 13.101562 " fill-opacity="1" fill-rule="nonzero"/></g></g></g><g clip-path="url(#ba7880a667)"><g clip-path="url(#6912c8660e)"><path fill="#ffc107" d="M 43.289062 17.34375 L 44.199219 17.34375 L 44.199219 18.128906 L 43.289062 18.128906 Z M 43.289062 17.34375 " fill-opacity="1" fill-rule="nonzero"/></g></g><g clip-path="url(#9014da4085)"><g clip-path="url(#8ac63d6a9a)"><g clip-path="url(#b6c133057f)"><path fill="#ffc107" d="M 118.859375 0.808594 L 118.527344 0.9375 L 118.398438 0.605469 C 118.378906 0.550781 118.316406 0.523438 118.261719 0.542969 C 118.207031 0.5625 118.179688 0.625 118.199219 0.679688 L 118.328125 1.011719 L 117.996094 1.140625 C 117.941406 1.164062 117.914062 1.222656 117.933594 1.28125 C 117.957031 1.335938 118.015625 1.363281 118.074219 1.339844 L 118.40625 1.214844 L 118.53125 1.546875 C 118.554688 1.601562 118.617188 1.628906 118.671875 1.605469 C 118.726562 1.585938 118.753906 1.523438 118.730469 1.46875 L 118.605469 1.136719 L 118.9375 1.007812 C 118.992188 0.988281 119.019531 0.925781 119 0.871094 C 118.976562 0.816406 118.914062 0.789062 118.859375 0.808594 Z M 118.859375 0.808594 " fill-opacity="1" fill-rule="nonzero"/></g></g></g><g clip-path="url(#91c3c6f73e)"><g clip-path="url(#e9ca50dfce)"><g clip-path="url(#3dddcd4485)"><path fill="#ffc107" d="M 108.003906 0.675781 L 108.554688 -0.046875 L 109.183594 0.433594 L 108.628906 1.15625 Z M 108.003906 0.675781 " fill-opacity="1" fill-rule="nonzero"/></g></g></g><g clip-path="url(#dc9a976b93)"><g clip-path="url(#1fda389193)"><g clip-path="url(#42533dcbd4)"><path fill="#ffc107" d="M 123.136719 27.40625 L 122.804688 27.53125 L 122.675781 27.199219 C 122.65625 27.144531 122.59375 27.117188 122.539062 27.140625 C 122.484375 27.160156 122.453125 27.222656 122.476562 27.277344 L 122.605469 27.609375 L 122.269531 27.738281 C 122.214844 27.757812 122.1875 27.820312 122.210938 27.875 C 122.230469 27.929688 122.292969 27.957031 122.347656 27.9375 L 122.679688 27.808594 L 122.808594 28.140625 C 122.828125 28.195312 122.890625 28.222656 122.945312 28.203125 C 123 28.183594 123.027344 28.121094 123.007812 28.066406 L 122.878906 27.730469 L 123.210938 27.605469 C 123.269531 27.582031 123.296875 27.523438 123.273438 27.464844 C 123.253906 27.410156 123.191406 27.382812 123.136719 27.40625 Z M 123.136719 27.40625 " fill-opacity="1" fill-rule="nonzero"/></g></g></g><g clip-path="url(#1e02a767cb)"><g clip-path="url(#9c1d1ad655)"><g clip-path="url(#55242b6d42)"><path fill="#ffc107" d="M 114.867188 32.304688 L 114.53125 32.433594 L 114.40625 32.101562 C 114.382812 32.046875 114.320312 32.019531 114.265625 32.039062 C 114.210938 32.058594 114.183594 32.121094 114.207031 32.175781 L 114.332031 32.507812 L 114 32.636719 C 113.945312 32.660156 113.917969 32.71875 113.9375 32.773438 C 113.960938 32.832031 114.023438 32.859375 114.078125 32.835938 L 114.410156 32.710938 L 114.539062 33.042969 C 114.558594 33.097656 114.621094 33.125 114.675781 33.101562 C 114.730469 33.082031 114.757812 33.019531 114.738281 32.964844 L 114.609375 32.632812 L 114.941406 32.503906 C 114.996094 32.484375 115.023438 32.421875 115.003906 32.367188 C 114.980469 32.3125 114.921875 32.285156 114.867188 32.304688 Z M 114.867188 32.304688 " fill-opacity="1" fill-rule="nonzero"/></g></g></g><g clip-path="url(#a7299b40a8)"><g clip-path="url(#f1918722cc)"><g clip-path="url(#c9d8b8400c)"><path fill="#ffc107" d="M 42.953125 25.550781 L 43.507812 24.828125 L 44.132812 25.308594 L 43.578125 26.027344 Z M 42.953125 25.550781 " fill-opacity="1" fill-rule="nonzero"/></g></g></g><g clip-path="url(#87e44dbcde)"><g clip-path="url(#1881c421a1)"><g clip-path="url(#3199687387)"><path fill="#ffc107" d="M 123.636719 13.882812 L 124.1875 13.160156 L 124.8125 13.640625 L 124.261719 14.363281 Z M 123.636719 13.882812 " fill-opacity="1" fill-rule="nonzero"/></g></g></g><g clip-path="url(#c8ab0001b1)"><path fill="#369c9a" d="M 31.292969 20.644531 L 27.929688 20.644531 L 34 81.367188 L 138.882812 69.882812 L 130.628906 7.878906 L 31.292969 20.644531 " fill-opacity="1" fill-rule="nonzero"/></g><path fill="#3ebd93" d="M 67.242188 5.769531 L 66.753906 5.632812 L 77.855469 -33.882812 L 78.34375 -33.746094 L 78.34375 -33.742188 L 78.253906 -33.699219 L 78.304688 -33.601562 L 67.242188 5.769531 " fill-opacity="1" fill-rule="nonzero"/><path fill="#3ebd93" d="M 96.914062 2.585938 L 78.304688 -33.601562 L 78.34375 -33.742188 L 78.707031 -33.929688 L 97.363281 2.355469 L 96.914062 2.585938 " fill-opacity="1" fill-rule="nonzero"/><g clip-path="url(#7f88a69376)"><path fill="#363f9e" d="M 142.539062 63.835938 C 142.578125 64.1875 142.328125 64.507812 141.980469 64.546875 L 38.171875 76.214844 C 37.824219 76.253906 37.511719 76 37.472656 75.648438 L 30.167969 10.644531 C 30.128906 10.292969 30.378906 9.976562 30.726562 9.9375 L 134.535156 -1.734375 C 134.882812 -1.773438 135.195312 -1.519531 135.234375 -1.167969 L 142.539062 63.835938 " fill-opacity="1" fill-rule="nonzero"/></g><path fill="#363f9e" d="M 68.089844 10.304688 L 67.597656 10.179688 L 79.269531 -35.683594 L 101.445312 6.042969 L 101 6.28125 L 79.4375 -34.289062 L 68.089844 10.304688 " fill-opacity="1" fill-rule="nonzero"/><path fill="#ffffff" d="M 102.390625 9.523438 C 101.480469 9.625 100.664062 8.972656 100.558594 8.0625 C 100.457031 7.152344 101.113281 6.332031 102.019531 6.230469 C 102.929688 6.128906 103.75 6.785156 103.851562 7.691406 C 103.953125 8.601562 103.300781 9.421875 102.390625 9.523438 Z M 104.152344 7.660156 C 104.03125 6.585938 103.0625 5.808594 101.988281 5.929688 C 100.914062 6.050781 100.140625 7.023438 100.261719 8.097656 C 100.378906 9.171875 101.351562 9.945312 102.425781 9.824219 C 103.5 9.703125 104.273438 8.734375 104.152344 7.660156 " fill-opacity="1" fill-rule="nonzero"/><path fill="#ffffff" d="M 67.914062 13.835938 C 67.003906 13.941406 66.183594 13.285156 66.082031 12.375 C 65.980469 11.46875 66.632812 10.648438 67.542969 10.546875 C 68.453125 10.441406 69.269531 11.097656 69.375 12.007812 C 69.476562 12.914062 68.820312 13.734375 67.914062 13.835938 Z M 69.675781 11.972656 C 69.554688 10.898438 68.582031 10.125 67.507812 10.246094 C 66.433594 10.367188 65.660156 11.335938 65.78125 12.410156 C 65.902344 13.484375 66.871094 14.257812 67.945312 14.136719 C 69.019531 14.019531 69.792969 13.046875 69.675781 11.972656 " fill-opacity="1" fill-rule="nonzero"/><g fill="#ffc107" fill-opacity="1"><g transform="translate(42.308677, 29.573717)"><g><path d="M 11.203125 -10.75 C 11.203125 -9.3125 10.582031 -8.222656 9.34375 -7.484375 C 10.019531 -7.234375 10.585938 -6.800781 11.046875 -6.1875 C 11.503906 -5.582031 11.734375 -4.722656 11.734375 -3.609375 C 11.734375 -2.503906 11.320312 -1.625 10.5 -0.96875 C 9.675781 -0.320312 8.5 0 6.96875 0 L 2.078125 0 C 1.835938 0 1.640625 -0.078125 1.484375 -0.234375 C 1.335938 -0.390625 1.265625 -0.601562 1.265625 -0.875 L 1.265625 -14.125 C 1.265625 -14.28125 1.285156 -14.378906 1.328125 -14.421875 C 1.378906 -14.472656 1.484375 -14.5 1.640625 -14.5 L 6.359375 -14.5 C 9.585938 -14.5 11.203125 -13.25 11.203125 -10.75 Z M 5.234375 -11.140625 L 5.234375 -8.4375 L 5.34375 -8.4375 C 6.664062 -8.4375 7.328125 -8.878906 7.328125 -9.765625 C 7.328125 -10.242188 7.195312 -10.59375 6.9375 -10.8125 C 6.6875 -11.03125 6.265625 -11.140625 5.671875 -11.140625 Z M 5.234375 -5.984375 L 5.234375 -3.296875 L 5.609375 -3.296875 C 6.203125 -3.296875 6.632812 -3.40625 6.90625 -3.625 C 7.1875 -3.84375 7.328125 -4.191406 7.328125 -4.671875 C 7.328125 -5.160156 7.195312 -5.5 6.9375 -5.6875 C 6.6875 -5.882812 6.265625 -5.984375 5.671875 -5.984375 Z M 5.234375 -5.984375 "/></g></g></g><g fill="#ffc107" fill-opacity="1"><g transform="translate(54.61147, 29.573717)"><g><path d="M 10.78125 0.046875 C 9.570312 0.046875 8.921875 -0.144531 8.828125 -0.53125 L 8.140625 -3.21875 L 4.84375 -3.21875 L 4.25 -0.640625 C 4.164062 -0.210938 3.503906 0 2.265625 0 C 1.597656 0 1.101562 -0.0351562 0.78125 -0.109375 C 0.46875 -0.191406 0.3125 -0.253906 0.3125 -0.296875 L 3.984375 -14.3125 C 3.984375 -14.425781 4.925781 -14.484375 6.8125 -14.484375 C 8.707031 -14.484375 9.65625 -14.425781 9.65625 -14.3125 L 13.234375 -0.265625 C 13.234375 -0.171875 12.914062 -0.09375 12.28125 -0.03125 C 11.644531 0.0195312 11.144531 0.046875 10.78125 0.046875 Z M 5.359375 -5.84375 L 7.546875 -5.84375 L 6.609375 -10.125 L 6.484375 -10.125 Z M 5.359375 -5.84375 "/></g></g></g><g fill="#ffc107" fill-opacity="1"><g transform="translate(68.17768, 29.573717)"><g><path d="M 12.390625 -0.453125 C 12.390625 -0.160156 11.738281 -0.015625 10.4375 -0.015625 C 9.144531 -0.015625 8.441406 -0.117188 8.328125 -0.328125 L 4.875 -6.796875 L 4.875 -0.359375 C 4.875 -0.109375 4.234375 0.015625 2.953125 0.015625 C 1.671875 0.015625 1.03125 -0.109375 1.03125 -0.359375 L 1.03125 -14.21875 C 1.03125 -14.425781 1.578125 -14.53125 2.671875 -14.53125 C 3.097656 -14.53125 3.597656 -14.488281 4.171875 -14.40625 C 4.742188 -14.332031 5.09375 -14.191406 5.21875 -13.984375 L 8.53125 -7.609375 L 8.53125 -14.109375 C 8.53125 -14.367188 9.171875 -14.5 10.453125 -14.5 C 11.742188 -14.5 12.390625 -14.367188 12.390625 -14.109375 Z M 12.390625 -0.453125 "/></g></g></g><g fill="#ffc107" fill-opacity="1"><g transform="translate(81.598908, 29.573717)"><g><path d="M 12.390625 -0.453125 C 12.390625 -0.160156 11.738281 -0.015625 10.4375 -0.015625 C 9.144531 -0.015625 8.441406 -0.117188 8.328125 -0.328125 L 4.875 -6.796875 L 4.875 -0.359375 C 4.875 -0.109375 4.234375 0.015625 2.953125 0.015625 C 1.671875 0.015625 1.03125 -0.109375 1.03125 -0.359375 L 1.03125 -14.21875 C 1.03125 -14.425781 1.578125 -14.53125 2.671875 -14.53125 C 3.097656 -14.53125 3.597656 -14.488281 4.171875 -14.40625 C 4.742188 -14.332031 5.09375 -14.191406 5.21875 -13.984375 L 8.53125 -7.609375 L 8.53125 -14.109375 C 8.53125 -14.367188 9.171875 -14.5 10.453125 -14.5 C 11.742188 -14.5 12.390625 -14.367188 12.390625 -14.109375 Z M 12.390625 -0.453125 "/></g></g></g><g fill="#ffc107" fill-opacity="1"><g transform="translate(95.020136, 29.573717)"><g><path d="M 7.765625 -8.75 C 8.023438 -8.75 8.15625 -8.265625 8.15625 -7.296875 C 8.15625 -7.003906 8.125 -6.660156 8.0625 -6.265625 C 8.007812 -5.867188 7.898438 -5.671875 7.734375 -5.671875 L 5.09375 -5.671875 L 5.09375 -3.609375 L 8.90625 -3.609375 C 9.144531 -3.609375 9.304688 -3.300781 9.390625 -2.6875 C 9.429688 -2.425781 9.453125 -2.144531 9.453125 -1.84375 C 9.453125 -1.550781 9.410156 -1.171875 9.328125 -0.703125 C 9.242188 -0.234375 9.101562 0 8.90625 0 L 1.828125 0 C 1.296875 0 1.03125 -0.210938 1.03125 -0.640625 L 1.03125 -13.96875 C 1.03125 -14.320312 1.191406 -14.5 1.515625 -14.5 L 8.9375 -14.5 C 9.21875 -14.5 9.359375 -13.890625 9.359375 -12.671875 C 9.359375 -11.453125 9.21875 -10.84375 8.9375 -10.84375 L 5.09375 -10.84375 L 5.09375 -8.75 Z M 7.765625 -8.75 "/></g></g></g><g fill="#ffc107" fill-opacity="1"><g transform="translate(105.231038, 29.573717)"><g><path d="M 5 -0.296875 C 5 -0.0664062 4.34375 0.046875 3.03125 0.046875 C 1.695312 0.046875 1.03125 -0.0546875 1.03125 -0.265625 L 1.03125 -13.78125 C 1.03125 -14.257812 1.285156 -14.5 1.796875 -14.5 L 5.765625 -14.5 C 9.390625 -14.5 11.203125 -13.082031 11.203125 -10.25 C 11.203125 -9.394531 11.035156 -8.617188 10.703125 -7.921875 C 10.378906 -7.222656 9.910156 -6.664062 9.296875 -6.25 L 11.90625 -1.90625 C 11.800781 -1.570312 11.445312 -1.191406 10.84375 -0.765625 C 10.007812 -0.171875 9.320312 0.125 8.78125 0.125 C 8.25 0.125 7.847656 -0.0664062 7.578125 -0.453125 L 5.640625 -5 L 5 -5 Z M 5 -10.84375 L 5 -7.734375 L 5.09375 -7.734375 C 6.40625 -7.734375 7.0625 -8.273438 7.0625 -9.359375 C 7.0625 -9.859375 6.929688 -10.226562 6.671875 -10.46875 C 6.421875 -10.71875 6.003906 -10.84375 5.421875 -10.84375 Z M 5 -10.84375 "/></g></g></g><g fill="#ffc107" fill-opacity="1"><g transform="translate(117.450982, 29.573717)"><g><path d="M 1.578125 -5.0625 C 1.835938 -4.851562 2.285156 -4.566406 2.921875 -4.203125 C 3.566406 -3.847656 4.179688 -3.671875 4.765625 -3.671875 C 5.359375 -3.671875 5.65625 -3.894531 5.65625 -4.34375 C 5.65625 -4.550781 5.570312 -4.734375 5.40625 -4.890625 C 5.238281 -5.054688 4.929688 -5.242188 4.484375 -5.453125 C 4.046875 -5.660156 3.71875 -5.820312 3.5 -5.9375 C 3.28125 -6.050781 2.988281 -6.242188 2.625 -6.515625 C 2.257812 -6.785156 1.976562 -7.066406 1.78125 -7.359375 C 1.226562 -8.140625 0.953125 -9.140625 0.953125 -10.359375 C 0.953125 -11.578125 1.40625 -12.601562 2.3125 -13.4375 C 3.21875 -14.269531 4.398438 -14.6875 5.859375 -14.6875 C 6.859375 -14.6875 7.78125 -14.578125 8.625 -14.359375 C 9.46875 -14.148438 9.898438 -13.875 9.921875 -13.53125 C 9.921875 -13.488281 9.921875 -13.445312 9.921875 -13.40625 C 9.921875 -12.925781 9.769531 -12.316406 9.46875 -11.578125 C 9.164062 -10.835938 8.953125 -10.425781 8.828125 -10.34375 C 7.941406 -10.789062 7.148438 -11.015625 6.453125 -11.015625 C 5.753906 -11.015625 5.40625 -10.769531 5.40625 -10.28125 C 5.40625 -9.976562 5.660156 -9.707031 6.171875 -9.46875 C 6.285156 -9.414062 6.445312 -9.335938 6.65625 -9.234375 C 6.863281 -9.140625 7.097656 -9.023438 7.359375 -8.890625 C 7.628906 -8.765625 7.921875 -8.597656 8.234375 -8.390625 C 8.546875 -8.191406 8.878906 -7.929688 9.234375 -7.609375 C 9.972656 -6.910156 10.34375 -6 10.34375 -4.875 C 10.34375 -3.394531 9.929688 -2.179688 9.109375 -1.234375 C 8.296875 -0.296875 7.039062 0.179688 5.34375 0.203125 C 4.519531 0.203125 3.769531 0.132812 3.09375 0 C 2.425781 -0.132812 1.84375 -0.398438 1.34375 -0.796875 C 0.84375 -1.203125 0.59375 -1.6875 0.59375 -2.25 C 0.59375 -2.820312 0.695312 -3.382812 0.90625 -3.9375 C 1.113281 -4.5 1.335938 -4.875 1.578125 -5.0625 Z M 1.578125 -5.0625 "/></g></g></g></svg>