<svg xmlns="http://www.w3.org/2000/svg" xmlns:xlink="http://www.w3.org/1999/xlink" width="559" zoomAndPan="magnify" viewBox="0 0 419.25 297.749991" height="397" preserveAspectRatio="xMidYMid meet" version="1.0"><defs><clipPath id="ff5fa9ba81"><path d="M 26.558594 0.140625 L 406.878906 0.140625 L 406.878906 297.359375 L 26.558594 297.359375 Z M 26.558594 0.140625 " clip-rule="nonzero"/></clipPath></defs><g clip-path="url(#ff5fa9ba81)"><path fill="#ff3131" d="M 62.820312 0.140625 C 42.84375 0.140625 26.652344 16.335938 26.652344 36.308594 L 26.652344 162.894531 C 26.652344 182.867188 42.84375 199.0625 62.820312 199.0625 L 207.347656 199.0625 L 207.347656 257.765625 C 205.578125 255.683594 203.734375 253.484375 202.136719 251.671875 C 199.386719 248.554688 197.648438 246.476562 195.109375 244.394531 C 180.511719 231.238281 157.730469 232.464844 144.476562 246.886719 C 131.085938 261.441406 133.65625 283.304688 146.296875 297.058594 C 181.183594 338.257812 201.34375 363.277344 222.339844 378.644531 C 243.398438 394.058594 265.199219 398.351562 298.066406 397.773438 C 299.042969 397.753906 307.671875 397.707031 315.957031 397.667969 C 324.089844 397.625 331.375 397.617188 334.074219 397.523438 C 376.191406 397.523438 406.710938 357.363281 406.710938 316.625 L 406.710938 233.695312 C 406.710938 216.296875 392.417969 202.082031 375.011719 202.082031 C 368.558594 202.082031 362.734375 204.152344 357.84375 207.503906 C 352.589844 197.226562 341.976562 190.074219 329.695312 190.074219 C 322.808594 190.074219 316.460938 192.359375 311.242188 196.132812 C 309.523438 193.375 307.390625 190.949219 304.9375 188.835938 C 311.730469 182.261719 315.992188 173.09375 315.992188 162.894531 L 315.992188 36.308594 C 315.992188 16.335938 299.796875 0.140625 279.824219 0.140625 Z M 99.640625 45.351562 L 116.964844 45.351562 L 144.761719 153.851562 L 126.113281 153.851562 L 121.820312 135.769531 L 94.625 135.769531 L 90.507812 153.851562 L 71.859375 153.851562 Z M 153.238281 45.351562 L 162.28125 45.351562 C 185.15625 45.351562 207.488281 49.535156 207.488281 99.601562 C 207.488281 149.667969 185.15625 153.851562 162.28125 153.851562 L 153.238281 153.851562 Z M 243.65625 45.351562 C 257.101562 45.351562 266.105469 53.597656 269.296875 58.472656 L 254.164062 68.398438 C 254.109375 68.316406 250.566406 63.433594 243.65625 63.433594 C 239.585938 63.542969 234.613281 65.199219 234.613281 72.476562 C 234.613281 77.773438 243.160156 86.335938 250.03125 93.207031 C 260.238281 103.40625 270.78125 113.941406 270.78125 126.726562 C 270.78125 127.574219 270.59375 128.273438 270.535156 129.078125 C 269.472656 112.617188 255.773438 99.441406 239.046875 99.441406 C 236.539062 99.441406 234.132812 99.820312 231.789062 100.378906 C 223.628906 91.878906 216.53125 82.941406 216.53125 72.476562 C 216.53125 52.574219 232.753906 45.351562 243.65625 45.351562 Z M 171.320312 63.699219 L 171.320312 135.503906 C 182.769531 134.410156 189.40625 128.761719 189.40625 99.601562 C 189.40625 70.441406 182.769531 64.792969 171.320312 63.699219 Z M 107.921875 77.246094 L 98.738281 117.6875 L 117.527344 117.6875 Z M 239.046875 117.527344 C 247.011719 117.527344 252.664062 123.1875 252.664062 131.070312 L 252.664062 253.3125 C 252.648438 254.535156 252.875 255.710938 253.335938 256.84375 C 253.796875 257.972656 254.464844 258.96875 255.328125 259.832031 C 255.539062 260.046875 255.753906 260.253906 255.984375 260.449219 C 255.988281 260.449219 255.996094 260.449219 256 260.449219 C 256.226562 260.636719 256.464844 260.8125 256.707031 260.976562 C 256.714844 260.976562 256.71875 260.976562 256.726562 260.976562 C 256.96875 261.144531 257.222656 261.296875 257.484375 261.4375 C 257.488281 261.4375 257.496094 261.4375 257.5 261.4375 C 257.765625 261.582031 258.035156 261.710938 258.3125 261.824219 C 258.320312 261.824219 258.324219 261.824219 258.332031 261.824219 C 258.605469 261.941406 258.878906 262.039062 259.160156 262.125 C 259.167969 262.125 259.171875 262.125 259.179688 262.125 C 259.464844 262.210938 259.753906 262.28125 260.046875 262.339844 C 260.050781 262.339844 260.058594 262.339844 260.0625 262.339844 C 260.355469 262.386719 260.648438 262.421875 260.945312 262.445312 C 260.953125 262.445312 260.957031 262.445312 260.964844 262.445312 C 261.261719 262.472656 261.5625 262.484375 261.863281 262.480469 C 262.164062 262.476562 262.464844 262.460938 262.765625 262.425781 C 263.0625 262.386719 263.355469 262.335938 263.648438 262.265625 C 263.945312 262.207031 264.238281 262.128906 264.53125 262.039062 C 264.8125 261.945312 265.089844 261.839844 265.359375 261.71875 C 265.636719 261.597656 265.910156 261.460938 266.171875 261.3125 C 266.433594 261.160156 266.6875 260.996094 266.933594 260.820312 C 267.183594 260.648438 267.425781 260.464844 267.65625 260.273438 C 267.878906 260.070312 268.089844 259.859375 268.292969 259.636719 C 268.296875 259.636719 268.304688 259.636719 268.308594 259.636719 C 269.113281 258.78125 269.726562 257.808594 270.152344 256.714844 C 270.578125 255.621094 270.78125 254.488281 270.765625 253.3125 L 270.765625 212.660156 C 270.765625 204.777344 276.417969 199.132812 284.378906 199.132812 C 292.34375 199.132812 297.996094 204.777344 297.996094 212.660156 L 297.996094 253.3125 C 297.988281 253.914062 298.039062 254.507812 298.148438 255.097656 C 298.257812 255.683594 298.425781 256.257812 298.648438 256.8125 C 298.871094 257.371094 299.148438 257.898438 299.476562 258.398438 C 299.804688 258.898438 300.179688 259.363281 300.597656 259.789062 C 301.019531 260.214844 301.476562 260.597656 301.972656 260.933594 C 302.472656 261.269531 302.996094 261.550781 303.546875 261.785156 C 304.101562 262.015625 304.671875 262.1875 305.257812 262.308594 C 305.84375 262.425781 306.4375 262.484375 307.039062 262.484375 C 307.636719 262.484375 308.230469 262.425781 308.816406 262.308594 C 309.40625 262.1875 309.976562 262.015625 310.527344 261.785156 C 311.082031 261.550781 311.605469 261.269531 312.101562 260.933594 C 312.597656 260.597656 313.054688 260.21875 313.476562 259.789062 C 313.898438 259.363281 314.273438 258.898438 314.601562 258.398438 C 314.929688 257.898438 315.207031 257.371094 315.429688 256.8125 C 315.652344 256.257812 315.820312 255.683594 315.929688 255.097656 C 316.039062 254.507812 316.089844 253.914062 316.078125 253.3125 L 316.078125 221.703125 C 316.078125 213.816406 321.730469 208.15625 329.695312 208.15625 C 337.660156 208.15625 343.3125 213.816406 343.3125 221.703125 L 343.3125 253.3125 C 343.304688 253.878906 343.347656 254.441406 343.449219 255 C 343.546875 255.558594 343.695312 256.105469 343.894531 256.632812 C 344.097656 257.164062 344.34375 257.671875 344.640625 258.152344 C 344.9375 258.636719 345.273438 259.089844 345.65625 259.507812 C 346.035156 259.929688 346.453125 260.308594 346.90625 260.652344 C 347.359375 260.992188 347.839844 261.289062 348.347656 261.539062 C 348.855469 261.789062 349.382812 261.992188 349.929688 262.144531 C 350.472656 262.296875 351.027344 262.394531 351.59375 262.445312 C 351.894531 262.472656 352.195312 262.484375 352.496094 262.480469 C 353.085938 262.46875 353.675781 262.402344 354.253906 262.277344 C 354.832031 262.152344 355.394531 261.972656 355.941406 261.738281 C 356.484375 261.503906 357 261.21875 357.488281 260.878906 C 357.976562 260.542969 358.425781 260.164062 358.839844 259.738281 C 359.253906 259.3125 359.621094 258.851562 359.945312 258.351562 C 360.265625 257.855469 360.535156 257.332031 360.757812 256.78125 C 360.976562 256.226562 361.136719 255.660156 361.246094 255.078125 C 361.355469 254.496094 361.402344 253.90625 361.394531 253.3125 L 361.394531 235.230469 C 361.394531 227.34375 367.773438 220.167969 375.011719 220.167969 C 382.976562 220.167969 388.625 225.808594 388.625 233.695312 L 388.625 316.625 C 388.625 348.21875 364.292969 379.441406 334.074219 379.441406 C 333.964844 379.4375 333.851562 379.4375 333.738281 379.441406 C 333.140625 379.464844 324.125 379.539062 315.851562 379.582031 C 307.574219 379.625 299.703125 379.652344 297.75 379.6875 C 266.402344 380.238281 250.839844 377.097656 233.023438 364.058594 C 215.210938 351.019531 194.992188 326.609375 159.84375 285.101562 C 159.769531 285.007812 159.691406 284.910156 159.613281 284.820312 C 152.324219 276.886719 151.238281 266.25 157.792969 259.125 C 164.414062 251.921875 175.933594 251.324219 183.101562 257.871094 C 183.25 258.003906 183.402344 258.132812 183.558594 258.257812 C 183.125 257.910156 185.921875 260.617188 188.59375 263.644531 C 191.265625 266.671875 194.476562 270.464844 197.5625 274.152344 C 203.738281 281.527344 209.378906 288.476562 209.378906 288.476562 C 209.96875 289.199219 210.652344 289.816406 211.433594 290.324219 C 212.210938 290.835938 213.050781 291.21875 213.949219 291.46875 C 214.84375 291.722656 215.761719 291.832031 216.691406 291.800781 C 217.625 291.769531 218.53125 291.597656 219.40625 291.285156 C 220.285156 290.976562 221.097656 290.539062 221.84375 289.976562 C 222.585938 289.414062 223.226562 288.753906 223.765625 287.992188 C 224.304688 287.230469 224.71875 286.40625 225 285.519531 C 225.285156 284.628906 225.429688 283.71875 225.429688 282.789062 L 225.429688 131.070312 C 225.429688 123.1875 231.082031 117.527344 239.046875 117.527344 Z M 239.046875 117.527344 " fill-opacity="1" fill-rule="nonzero"/></g></svg>